<svg xmlns="http://www.w3.org/2000/svg" width="960" height="460" viewBox="0 0 960 460" role="img"><title>Measured PM2.5: coverage-qualified days</title><desc>Only full local dates with at least 18/24 accepted hours; no interpolation.</desc><rect width="100%" height="100%" fill="white"/><g font-family="Arial, sans-serif" fill="#243340"><text x="82.00" y="28.00" text-anchor="start" font-size="20">Measured PM2.5: coverage-qualified days</text><text x="82.00" y="51.00" text-anchor="start" font-size="13">Only full local dates with at least 18/24 accepted hours; no interpolation.</text><defs><clipPath id="plot"><rect x="82" y="94" width="844" height="296"/></clipPath></defs><line x1="82" y1="390.00" x2="926" y2="390.00" stroke="#dae0e4"/><text x="70.00" y="395.00" text-anchor="end" font-size="14">4.97</text><line x1="82.00" y1="390" x2="82.00" y2="396" stroke="#80909c"/><text x="82.00" y="416.00" text-anchor="middle" font-size="14">08 Jun</text><line x1="82" y1="330.80" x2="926" y2="330.80" stroke="#dae0e4"/><text x="70.00" y="335.80" text-anchor="end" font-size="14">18.1</text><line x1="250.80" y1="390" x2="250.80" y2="396" stroke="#80909c"/><text x="250.80" y="416.00" text-anchor="middle" font-size="14">26 Jun</text><line x1="82" y1="271.60" x2="926" y2="271.60" stroke="#dae0e4"/><text x="70.00" y="276.60" text-anchor="end" font-size="14">31.2</text><line x1="419.60" y1="390" x2="419.60" y2="396" stroke="#80909c"/><text x="419.60" y="416.00" text-anchor="middle" font-size="14">14 Jul</text><line x1="82" y1="212.40" x2="926" y2="212.40" stroke="#dae0e4"/><text x="70.00" y="217.40" text-anchor="end" font-size="14">44.4</text><line x1="588.40" y1="390" x2="588.40" y2="396" stroke="#80909c"/><text x="588.40" y="416.00" text-anchor="middle" font-size="14">01 Aug</text><line x1="82" y1="153.20" x2="926" y2="153.20" stroke="#dae0e4"/><text x="70.00" y="158.20" text-anchor="end" font-size="14">57.5</text><line x1="757.20" y1="390" x2="757.20" y2="396" stroke="#80909c"/><text x="757.20" y="416.00" text-anchor="middle" font-size="14">19 Aug</text><line x1="82" y1="94.00" x2="926" y2="94.00" stroke="#dae0e4"/><text x="70.00" y="99.00" text-anchor="end" font-size="14">70.6</text><line x1="926.00" y1="390" x2="926.00" y2="396" stroke="#80909c"/><text x="926.00" y="416.00" text-anchor="middle" font-size="14">06 Sep</text><rect x="82" y="94" width="844" height="296" fill="none" stroke="#80909c"/><text x="504.00" y="444.00" text-anchor="middle" font-size="14">Vietnam local date, 2026</text><text transform="translate(20 242.0) rotate(-90)" text-anchor="middle" font-size="14">Daily mean (ug/m3)</text><line x1="82" y1="74" x2="106" y2="74" stroke="#2563a6" stroke-width="2"/><text x="114.00" y="79.00" text-anchor="start" font-size="14">CMT8</text><path clip-path="url(#plot)" d="M91.38,311.41 L100.76,323.05 L110.13,316.89 L119.51,235.56 L128.89,269.12 L138.27,267.92 L147.64,323.13 L157.02,294.50 L166.40,288.43 L175.78,303.85 L185.16,285.88 L194.53,321.23 L203.91,305.68 L213.29,302.93 L222.67,320.55 L232.04,304.38 L241.42,339.28 L250.80,334.90 L260.18,321.44 L269.56,339.56 L278.93,348.60 L288.31,335.47 L297.69,339.39 L307.07,341.33 L316.44,353.24 L325.82,337.98 L335.20,311.71 L344.58,251.37 L353.96,268.02 L363.33,273.54 L372.71,326.41 L382.09,319.73 L391.47,320.08 L400.84,343.43 L410.22,348.32 L419.60,342.57 L428.98,287.61 L438.36,311.95 L447.73,281.52 L457.11,268.82 L466.49,304.72 L475.87,311.48 L485.24,307.44 L494.62,316.01 L504.00,305.13 L513.38,311.41 L522.76,305.43 L532.13,331.09 L541.51,332.76 L550.89,330.26 L560.27,300.34 L569.64,308.76 L579.02,341.70 L588.40,323.50 L597.78,301.39 L607.16,317.02 L616.53,291.95 L625.91,248.86 L635.29,306.47 L644.67,275.89 L654.04,281.88 L663.42,352.71 L672.80,333.68 L682.18,300.27 L691.56,288.28 L700.93,285.77 L710.31,330.55 L719.69,352.79 L729.07,340.86 L738.44,333.51 L747.82,319.78 L757.20,341.35 L766.58,323.13 L775.96,329.93 L785.33,284.32 L794.71,229.40 L804.09,292.30 L813.47,337.65 L822.84,306.67 L832.22,305.96 L841.60,318.04 L850.98,269.24 L860.36,316.44 L869.73,334.53 L879.11,298.73 L888.49,293.45 L897.87,306.48 L907.24,298.58 L916.62,305.32" fill="none" stroke="#2563a6" stroke-width="1.7"/><line x1="332" y1="74" x2="356" y2="74" stroke="#bd5618" stroke-width="2"/><text x="364.00" y="79.00" text-anchor="start" font-size="14">OceanPark</text><path clip-path="url(#plot)" d="M91.38,318.60 L100.76,271.88 L110.13,135.06 L119.51,215.59 L128.89,260.65 L138.27,299.65 L147.64,213.39 L157.02,157.66 L166.40,236.12 L175.78,285.39 L185.16,304.55 L194.53,342.98 L203.91,300.36 L213.29,313.62 L222.67,335.60 L232.04,360.28 L241.42,247.75 L250.80,304.64 L260.18,215.08 L269.56,240.95 L278.93,242.83 L288.31,310.47 M353.96,258.21 L363.33,250.68 L372.71,246.06 L382.09,256.41 L391.47,200.06 L400.84,251.67 L410.22,226.77 L419.60,246.83 L428.98,231.73 L438.36,258.21 L447.73,338.64 L457.11,343.34 L466.49,374.14 L475.87,224.76 L485.24,109.86 L494.62,173.08 L504.00,237.75 L513.38,269.59 L522.76,279.91 L532.13,232.50 L541.51,275.94 L550.89,317.13 L560.27,303.44 L569.64,277.29 L579.02,300.94 L588.40,339.51 L597.78,286.35 L607.16,304.44 L616.53,282.89 L625.91,289.52 L635.29,306.86 L644.67,286.14 L654.04,265.07 L663.42,238.58 L672.80,247.39 L682.18,273.67 L691.56,183.62 L700.93,200.83 L710.31,247.52 L719.69,212.72 L729.07,164.63 L738.44,250.54 L747.82,284.32 L757.20,319.86 L766.58,286.65 L775.96,331.03 L785.33,321.91 L794.71,320.29 L804.09,326.43 L813.47,257.74 L822.84,202.99 L832.22,155.05 L841.60,326.11 L850.98,310.67 L860.36,313.43 L869.73,271.60 L879.11,243.84 L888.49,244.20 L897.87,225.38 L907.24,256.41 L916.62,336.16" fill="none" stroke="#bd5618" stroke-width="1.7"/></g></svg>
