<svg xmlns="http://www.w3.org/2000/svg" width="960" height="460" viewBox="0 0 960 460" role="img"><title>PM2.5 correlation at elapsed-hour lags</title><desc>Exact-time pairs; gaps are not shifted away. No significance or forecast-skill claim.</desc><rect width="100%" height="100%" fill="white"/><g font-family="Arial, sans-serif" fill="#243340"><text x="82.00" y="28.00" text-anchor="start" font-size="20">PM2.5 correlation at elapsed-hour lags</text><text x="82.00" y="51.00" text-anchor="start" font-size="13">Exact-time pairs; gaps are not shifted away. No significance or forecast-skill claim.</text><defs><clipPath id="plot"><rect x="82" y="94" width="844" height="296"/></clipPath></defs><line x1="82" y1="390.00" x2="926" y2="390.00" stroke="#dae0e4"/><text x="70.00" y="395.00" text-anchor="end" font-size="14">-1</text><line x1="82.00" y1="390" x2="82.00" y2="396" stroke="#80909c"/><text x="82.00" y="416.00" text-anchor="middle" font-size="14">1</text><line x1="82" y1="330.80" x2="926" y2="330.80" stroke="#dae0e4"/><text x="70.00" y="335.80" text-anchor="end" font-size="14">-0.6</text><line x1="250.80" y1="390" x2="250.80" y2="396" stroke="#80909c"/><text x="250.80" y="416.00" text-anchor="middle" font-size="14">34.4</text><line x1="82" y1="271.60" x2="926" y2="271.60" stroke="#dae0e4"/><text x="70.00" y="276.60" text-anchor="end" font-size="14">-0.2</text><line x1="419.60" y1="390" x2="419.60" y2="396" stroke="#80909c"/><text x="419.60" y="416.00" text-anchor="middle" font-size="14">67.8</text><line x1="82" y1="212.40" x2="926" y2="212.40" stroke="#dae0e4"/><text x="70.00" y="217.40" text-anchor="end" font-size="14">0.2</text><line x1="588.40" y1="390" x2="588.40" y2="396" stroke="#80909c"/><text x="588.40" y="416.00" text-anchor="middle" font-size="14">101</text><line x1="82" y1="153.20" x2="926" y2="153.20" stroke="#dae0e4"/><text x="70.00" y="158.20" text-anchor="end" font-size="14">0.6</text><line x1="757.20" y1="390" x2="757.20" y2="396" stroke="#80909c"/><text x="757.20" y="416.00" text-anchor="middle" font-size="14">135</text><line x1="82" y1="94.00" x2="926" y2="94.00" stroke="#dae0e4"/><text x="70.00" y="99.00" text-anchor="end" font-size="14">1</text><line x1="926.00" y1="390" x2="926.00" y2="396" stroke="#80909c"/><text x="926.00" y="416.00" text-anchor="middle" font-size="14">168</text><rect x="82" y="94" width="844" height="296" fill="none" stroke="#80909c"/><text x="504.00" y="444.00" text-anchor="middle" font-size="14">Lag (hours)</text><text transform="translate(20 242.0) rotate(-90)" text-anchor="middle" font-size="14">Pairwise Pearson r</text><line x1="82" y1="74" x2="106" y2="74" stroke="#2563a6" stroke-width="2"/><text x="114.00" y="79.00" text-anchor="start" font-size="14">CMT8</text><path clip-path="url(#plot)" d="M82.00,122.11 L87.05,150.63 L92.11,172.50 L97.16,189.85 L102.22,202.75 L107.27,212.31 L112.32,217.39 L117.38,216.89 L122.43,213.94 L127.49,210.45 L132.54,207.80 L137.59,206.66 L142.65,209.24 L147.70,214.28 L152.75,221.67 L157.81,227.91 L162.86,231.11 L167.92,230.03 L172.97,224.91 L178.02,218.70 L183.08,208.01 L188.13,195.91 L193.19,187.32 L198.24,184.91 L203.29,190.96 L208.35,204.70 L213.40,220.62 L218.46,233.60 L223.51,241.49 L228.56,245.91 L233.62,246.35 L238.67,242.97 L243.72,236.78 L248.78,229.36 L253.83,223.85 L258.89,222.18 L263.94,224.81 L268.99,231.01 L274.05,238.55 L279.10,245.44 L284.16,250.52 L289.21,250.89 L294.26,246.76 L299.32,237.38 L304.37,226.44 L309.43,217.29 L314.48,209.71 L319.53,206.77 M440.83,211.94 M926.00,226.32" fill="none" stroke="#2563a6" stroke-width="1.7"/><line x1="332" y1="74" x2="356" y2="74" stroke="#bd5618" stroke-width="2"/><text x="364.00" y="79.00" text-anchor="start" font-size="14">OceanPark</text><path clip-path="url(#plot)" d="M82.00,113.33 L87.05,134.45 L92.11,152.24 L97.16,166.64 L102.22,177.58 L107.27,185.95 L112.32,193.21 L117.38,199.60 L122.43,203.60 L127.49,206.99 L132.54,210.10 L137.59,211.73 L142.65,212.11 L147.70,212.11 L152.75,211.21 L157.81,210.58 L162.86,209.26 L167.92,207.55 L172.97,206.16 L178.02,204.70 L183.08,201.45 L188.13,198.82 L193.19,197.85 L198.24,197.18 L203.29,199.83 L208.35,203.96 L213.40,206.24 L218.46,208.49 L223.51,212.50 L228.56,217.40 L233.62,223.67 L238.67,230.17 L243.72,234.57 L248.78,237.27 L253.83,238.85 L258.89,239.28 L263.94,239.18 L268.99,239.02 L274.05,238.57 L279.10,237.41 L284.16,236.66 L289.21,236.03 L294.26,236.23 L299.32,236.14 L304.37,236.71 L309.43,237.12 L314.48,238.28 L319.53,239.41 M440.83,249.43 M926.00,251.00" fill="none" stroke="#bd5618" stroke-width="1.7"/></g></svg>
